<svg width="40" height="40" viewBox="0 0 40 40" fill="none" xmlns="http://www.w3.org/2000/svg">
<path d="M20 40C31.0457 40 40 31.0457 40 20C40 8.95431 31.0457 0 20 0C8.95431 0 0 8.95431 0 20C0 31.0457 8.95431 40 20 40Z" fill="url(#paint0_linear)"/>
<path fill-rule="evenodd" clip-rule="evenodd" d="M9.05369 19.7889L20.7173 14.7649C26.2715 12.4547 27.4256 12.0534 28.1779 12.0402C28.3433 12.0373 28.7133 12.0783 28.9529 12.2727C29.1553 12.4369 29.2109 12.6587 29.2375 12.8143C29.2642 12.9699 29.2973 13.3246 29.271 13.6017C28.97 16.7641 27.6676 24.4386 27.0051 27.9806C26.7247 29.4794 26.1731 29.9819 25.6383 30.0311C24.4768 30.138 23.5949 29.2635 22.4699 28.5261L18.0066 25.528C16.0319 24.2268 17.312 23.5116 18.4374 22.3428C18.7319 22.0368 23.8492 17.3823 23.9482 16.96C23.9602 16.9072 23.9721 16.7104 23.8551 16.6064C23.7382 16.5024 23.5655 16.5384 23.441 16.5663C23.2645 16.6064 20.4525 18.465 15.0049 22.1423C14.2067 22.6904 13.4837 22.9575 12.836 22.9435C12.1219 22.9281 10.7483 22.5397 9.72709 22.2078C8.47457 21.8007 7.47909 21.5854 7.56581 20.8939C7.61093 20.5338 8.10689 20.1655 9.05365 19.789L9.05369 19.7889Z" fill="white"/>
<defs>
<linearGradient id="paint0_linear" x1="20" y1="0" x2="20" y2="39.7033" gradientUnits="userSpaceOnUse">
<stop stop-color="#2AABEE"/>
<stop offset="1" stop-color="#229ED9"/>
</linearGradient>
</defs>
</svg>
